<?xml version="1.0" encoding="utf-8"?>
<svg version="1.1" id="Layer_1" xmlns="http://www.w3.org/2000/svg"

                            xmlns:xlink="http://www.w3.org/1999/xlink" x="0px" y="0px" viewBox="0 0 24 24"

                            style="enable-background:new 0 0 24 24;" xml:space="preserve">

                            <g>

                                <path style="fill:#F2F2F2;" d="M12,24L12,24C5.37,24,0,18.63,0,12l0,0C0,5.37,5.37,0,12,0l0,0c6.63,0,12,5.37,12,12l0,0

		C24,18.63,18.63,24,12,24z" />

                            </g>

                            <g>

                                <path style="fill:#000000cc;" d="M17.25,16.61c0,0.62-0.5,1.13-1.13,1.13H7.88c-0.62,0-1.13-0.5-1.13-1.13V8.36

		c0-0.62,0.5-1.13,1.13-1.13H9V6.02c0-0.15,0.13-0.28,0.28-0.28h0.94c0.15,0,0.28,0.13,0.28,0.28v1.22h3V6.02

		c0-0.15,0.13-0.28,0.28-0.28h0.94c0.16,0,0.28,0.13,0.28,0.28v1.22h1.13c0.62,0,1.13,0.5,1.13,1.13V16.61z M16.13,9.49H7.88v6.98

		c0,0.08,0.06,0.14,0.14,0.14h7.97c0.08,0,0.14-0.06,0.14-0.14V9.49z M9.28,12.49C9.13,12.49,9,12.36,9,12.21v-0.94

		c0-0.15,0.13-0.28,0.28-0.28h0.94c0.15,0,0.28,0.13,0.28,0.28v0.94c0,0.15-0.13,0.28-0.28,0.28H9.28z M10.22,14.74H9.28

		C9.13,14.74,9,14.61,9,14.46v-0.94c0-0.16,0.13-0.28,0.28-0.28h0.94c0.15,0,0.28,0.13,0.28,0.28v0.94

		C10.5,14.61,10.37,14.74,10.22,14.74z M12.47,12.49h-0.94c-0.15,0-0.28-0.13-0.28-0.28v-0.94c0-0.15,0.13-0.28,0.28-0.28h0.94

		c0.15,0,0.28,0.13,0.28,0.28v0.94C12.75,12.36,12.62,12.49,12.47,12.49z M12.47,14.74h-0.94c-0.15,0-0.28-0.13-0.28-0.28v-0.94

		c0-0.16,0.13-0.28,0.28-0.28h0.94c0.15,0,0.28,0.13,0.28,0.28v0.94C12.75,14.61,12.62,14.74,12.47,14.74z M14.72,12.49h-0.94

		c-0.15,0-0.28-0.13-0.28-0.28v-0.94c0-0.15,0.13-0.28,0.28-0.28h0.94c0.16,0,0.28,0.13,0.28,0.28v0.94

		C15,12.36,14.87,12.49,14.72,12.49z M14.72,14.74h-0.94c-0.15,0-0.28-0.13-0.28-0.28v-0.94c0-0.16,0.13-0.28,0.28-0.28h0.94

		c0.16,0,0.28,0.13,0.28,0.28v0.94C15,14.61,14.87,14.74,14.72,14.74z" />

                            </g>

                        </svg>
