<svg version="1.1" id="Layer_1" xmlns="http://www.w3.org/2000/svg" xmlns:xlink="http://www.w3.org/1999/xlink" x="0px" y="0px"
	 viewBox="0 0 24 32" style="enable-background:new 0 0 24 32;" xml:space="preserve">
<path d="M24,8.25V29c0,1.66-1.34,3-3,3H3c-1.66,0-3-1.34-3-3V3.01c0-1.66,1.34-3,3-3.01h12.75c0.79,0,1.56,0.32,2.12,0.88l5.24,5.24
	C23.68,6.69,24,7.46,24,8.25z M22,29V10h-6.5C14.67,10,14,9.34,14,8.5v-6.5H3c-0.55,0-1,0.45-1,1V29c0,0.55,0.45,1,1,1h18
	C21.55,30,22,29.55,22,29z M18,15.25c0,0.41-0.34,0.75-0.75,0.75H6.75C6.34,16,6,15.67,6,15.25v-0.5C6,14.34,6.34,14,6.75,14h10.5
	c0.41,0,0.75,0.34,0.75,0.75V15.25z M18,19.25c0,0.41-0.34,0.75-0.75,0.75H6.75C6.34,20,6,19.67,6,19.25v-0.5
	C6,18.34,6.34,18,6.75,18h10.5c0.41,0,0.75,0.34,0.75,0.75V19.25z M18,23.25c0,0.41-0.34,0.75-0.75,0.75H6.75
	C6.34,24,6,23.66,6,23.25v-0.5C6,22.34,6.34,22,6.75,22h10.5c0.41,0,0.75,0.34,0.75,0.75V23.25z M16.46,2.3
	C16.33,2.17,16.17,2.08,16,2.04V8h5.97c-0.04-0.17-0.13-0.33-0.26-0.46L16.46,2.3z"/>
</svg>
