<?xml version="1.0" encoding="utf-8"?>
<!-- Generator: Adobe Illustrator 24.1.3, SVG Export Plug-In . SVG Version: 6.00 Build 0)  -->
<svg version="1.1" id="Layer_1" xmlns="http://www.w3.org/2000/svg" xmlns:xlink="http://www.w3.org/1999/xlink" x="0px" y="0px"
	 viewBox="0 0 128 128" style="enable-background:new 0 0 128 128;" xml:space="preserve">
<linearGradient id="SVGID_1_" gradientUnits="userSpaceOnUse" x1="8.5651" y1="31.9946" x2="119.4349" y2="96.0054">
	<stop  offset="0" style="stop-color:#277AB8"/>
	<stop  offset="1" style="stop-color:#162689"/>
</linearGradient>
<circle style="fill:url(#SVGID_1_);" cx="64" cy="64" r="64"/>
<g>
	<path style="fill:#37ECBA;" d="M77.54,63.01v-4.87H59.38h-2.9V47.09c0-0.92,0.66-1.58,1.58-1.58h20.01c3.82,0,6.98-3.16,6.98-6.98
		v-3.82H52.53c-5.4,0-8.82,2.63-8.82,8.95v14.35H29.37v5.79c0,2.76,2.24,5,5,5h37.25C74.78,69.07,77.54,66.3,77.54,63.01z"/>
	<path style="fill:#FFFFFF;" d="M43.58,74.33v10c0,6.32,3.42,8.95,8.82,8.95h32.78V90c0-4.08-3.29-7.5-7.37-7.5H57.93
		c-0.92,0-1.58-0.66-1.58-1.58v-6.58L43.58,74.33z"/>
</g>
</svg>
