<?xml version="1.0"?>
<svg version="1.1" id="Layer_1" xmlns="http://www.w3.org/2000/svg"

                        xmlns:xlink="http://www.w3.org/1999/xlink" x="0px" y="0px" viewBox="0 0 256 256"

                        style="enable-background:new 0 0 256 256;" xml:space="preserve">

                        <g>

                            <path style="fill:#162689;" d="M128,256L128,256C57.31,256,0,198.69,0,128v0C0,57.31,57.31,0,128,0h0c70.69,0,128,57.31,128,128v0

                        C256,198.69,198.69,256,128,256z" />

                            <linearGradient id="SVGID_1_" gradientUnits="userSpaceOnUse" x1="37.4903" y1="37.4903"

                                x2="218.5097" y2="218.5097">

                                <stop offset="0" style="stop-color:#165989" />

                                <stop offset="1" style="stop-color:#162689" />

                            </linearGradient>

                            <path style="fill:url(#SVGID_1_);" d="M128,256L128,256C57.31,256,0,198.69,0,128v0C0,57.31,57.31,0,128,0h0

                        c70.69,0,128,57.31,128,128v0C256,198.69,198.69,256,128,256z" />

                        </g>

                        <g>

                            <path style="fill:#37ECBA;" d="M155.59,121.81v-10.25h-38.78h-6.25v-23.5c0-1.88,1.53-3.4,3.4-3.4h42.53

                        c8.21,0,14.87-6.66,14.87-14.87v-8.04h-69.23c-11.56,0-18.86,5.69-18.86,19.22v30.6H52.68v12.36c0,5.95,4.82,10.77,10.77,10.77

                        l79.27,0.01C149.83,134.69,155.59,128.93,155.59,121.81z" />

                            <path style="fill:#FFFFFF;" d="M83.29,145.95v21.3c0,13.52,7.3,19.04,18.86,19.04h69.94v-7.05c0-8.75-7.1-15.85-15.85-15.85h-42.27

                        c-1.88,0-3.4-1.52-3.4-3.4v-13.99L83.29,145.95z" />

                        </g>

                    </svg>
