<?xml version="1.0" encoding="utf-8"?>
<!-- Generator: Adobe Illustrator 24.1.3, SVG Export Plug-In . SVG Version: 6.00 Build 0)  -->
<svg version="1.1" id="Layer_1" xmlns="http://www.w3.org/2000/svg" xmlns:xlink="http://www.w3.org/1999/xlink" x="0px" y="0px"
	 viewBox="0 0 652.1 177" style="enable-background:new 0 0 652.1 177;" xml:space="preserve">
<style type="text/css">
	.st0{fill:url(#SVGID_1_);}
	.st1{fill:#37ECBA;}
	.st2{fill:#FFFFFF;}
</style>
<linearGradient id="SVGID_1_" gradientUnits="userSpaceOnUse" x1="81.5175" y1="319.1925" x2="570.6225" y2="36.8075" gradientTransform="matrix(1 0 0 -1 0 178)">
	<stop  offset="0" style="stop-color:#277AB8"/>
	<stop  offset="1" style="stop-color:#162689"/>
</linearGradient>
<path class="st0" d="M0,0l393.5,166.4c53.2,22.5,114.8,7.4,151.7-37.1L652.1,0H0z"/>
<g>
	<path class="st1" d="M341.3,66.5v-3.7h-13.8h-2.2v-8.4c0-0.7,0.5-1.2,1.2-1.2h15.2c2.9,0,5.3-2.4,5.3-5.3v-2.9h-24.7
		c-4.1,0-6.7,2-6.7,6.8v10.9h-10.9v4.4c0,2.1,1.7,3.8,3.8,3.8h28.3C339.2,71.1,341.3,69,341.3,66.5z"/>
	<path class="st2" d="M315.5,75.1v7.6c0,4.8,2.6,6.8,6.7,6.8h24.9v-2.5c0-3.1-2.5-5.7-5.6-5.7h-15.1c-0.7,0-1.2-0.5-1.2-1.2v-5
		L315.5,75.1z"/>
</g>
<path class="st2" d="M350.7,62.2c0-4.5,2.2-6.3,6.3-6.3h10.7c7.9,0,13.2,3.5,13.2,12.1v21.5h-3c-3.1,0-5.5-2.5-5.5-5.5V67.7
	c0-2.5-2-4.5-4.5-4.5h-6.8c-0.8,0-1.5,0.7-1.5,1.5v19c0,3.2-2.6,5.9-5.9,5.9h-3.1L350.7,62.2L350.7,62.2z"/>
<path class="st2" d="M384.4,71.5c0-9.9,4.2-15.6,14.1-15.6h5.7v3.4c0,2.2-1.8,3.9-3.9,3.9l0,0c-5.8,0-7.9,3.1-7.9,8.9V84
	c0,3-2.5,5.5-5.5,5.5h-2.5L384.4,71.5L384.4,71.5z"/>
<path class="st2" d="M416.1,89.4c-6.7,0-10.4-4.3-10.4-10.7V64.6c0-4.8,3.9-8.7,8.7-8.7h10.5c5,0,9.7,4.5,9.7,10.5
	c0,6.3-3.4,10.5-8.3,10.5h-13.2v1.5c0,2.7,1.4,4.1,4.3,4.1h11.3c2.6,0,4.7,2.1,4.7,4.7v2.4L416.1,89.4L416.1,89.4z M423.6,70
	c2,0,3-1.2,3-3.7c0-2.2-0.9-3.6-2.9-3.6h-8.4c-1.5,0-2.2,0.8-2.2,2.2V70H423.6z"/>
<path class="st2" d="M455.3,55.8c6.7,0,10.4,4.3,10.4,10.6v16c0,3.8-3.1,7-7,7h-14.3c-5,0-8.3-4.4-8.3-10.5c0-6.3,3.4-10.5,8.3-10.5
	h13.2V67c0-2.7-1.4-4.1-4.3-4.1h-11.6c-2.5,0-4.4-2-4.4-4.4v-2.7C437.3,55.8,455.3,55.8,455.3,55.8z M447,75.3c-2,0-3,1.2-3,3.7
	c0,2.2,0.9,3.6,2.9,3.6h8.4c1.5,0,2.2-0.8,2.2-2.2v-5.1H447L447,75.3z"/>
<path class="st2" d="M483.2,89.4c-11.4,0-14.1-6.7-14.1-16.8s2.7-16.8,14.1-16.8h12.1v3.3c0,2.5-2,4.5-4.5,4.5h-5.5
	c-6.4,0-7.8,3.3-7.8,9.1s1.4,9.5,7.8,9.5h5.9c2.6,0,4.7,2.1,4.7,4.7v2.6L483.2,89.4L483.2,89.4z"/>
<path class="st2" d="M505.7,45.1h3.3v10.8h6.6c7.9,0,13.5,3.5,13.5,12.1v21.5h-3.3c-3.1,0-5.6-2.5-5.6-5.6V68.4
	c0-2.9-2.4-5.3-5.3-5.3H509v20.1c0,3.4-2.8,6.2-6.2,6.2h-3.2V51.2C499.5,47.8,502.3,45.1,505.7,45.1z"/>
</svg>
