<svg version="1.1" id="Layer_1" xmlns="http://www.w3.org/2000/svg" xmlns:xlink="http://www.w3.org/1999/xlink" x="0px" y="0px"
	 viewBox="0 0 32 28" style="enable-background:new 0 0 32 28;" xml:space="preserve">
<path d="M32,9v15c0,2.21-1.79,4-4,4H6c-3.31,0-6-2.69-6-6V6c0-3.31,2.69-6,6-6h18c2.21,0,4,1.79,4,4v1C30.21,5,32,6.79,32,9z M29,9
	c0-0.55-0.45-1-1-1H7C6.45,8,6,7.55,6,7s0.45-1,1-1h18V4c0-0.55-0.45-1-1-1H6C4.35,3,3,4.35,3,6v16c0,1.65,1.35,3,3,3h22
	c0.55,0,1-0.45,1-1V9z M26,16c0,1.1-0.9,2-2,2s-2-0.9-2-2s0.9-2,2-2S26,14.9,26,16z"/>
</svg>
